<svg width="1em" height="1em" viewBox="0 0 14 10" version="1.1" xmlns="http://www.w3.org/2000/svg"><g stroke="none" stroke-width="1" fill-rule="evenodd"><g transform="translate(-89.000000, -168.000000)"><g id="Shape" transform="translate(88.000000, 165.000000)"><path d="M14.5012781,11.5 C14.7767146,11.5 15,11.7238576 15,12 C15,12.2454599 14.823577,12.4496084 14.590924,12.4919443 L14.5012781,12.5 L1.49872188,12.5 C1.22328539,12.5 1,12.2761424 1,12 C1,11.7545401 1.17642303,11.5503916 1.40907599,11.5080557 L1.49872188,11.5 L14.5012781,11.5 Z M14.5012781,7.5 C14.7767146,7.5 15,7.72385763 15,8 C15,8.24545989 14.823577,8.44960837 14.590924,8.49194433 L14.5012781,8.5 L1.49872188,8.5 C1.22328539,8.5 1,8.27614237 1,8 C1,7.75454011 1.17642303,7.55039163 1.40907599,7.50805567 L1.49872188,7.5 L14.5012781,7.5 Z M14.5012781,3.5 C14.7767146,3.5 15,3.72385763 15,4 C15,4.24545989 14.823577,4.44960837 14.590924,4.49194433 L14.5012781,4.5 L1.49872188,4.5 C1.22328539,4.5 1,4.27614237 1,4 C1,3.75454011 1.17642303,3.55039163 1.40907599,3.50805567 L1.49872188,3.5 L14.5012781,3.5 Z"></path></g></g></g></svg>