<svg width="1em" height="1em" viewBox="0 0 16 16" version="1.1" xmlns="http://www.w3.org/2000/svg"><g stroke="none" stroke-width="1" fill-rule="evenodd"><g transform="translate(-184.000000, -94.000000)"><g id="Shape" transform="translate(184.000000, 94.000000)"><path d="M6.7,-4.26325641e-14 C10.4003078,-4.26325641e-14 13.4,2.99969218 13.4,6.7 C13.4,8.35524927 12.799756,9.87030405 11.8050609,11.0393716 L15.8560942,15.1490058 C16.0499429,15.3456712 16.0476596,15.6622454 15.8509942,15.8560942 C15.6761805,16.0284042 15.4066241,16.0457456 15.2127346,15.9093476 L15.1439058,15.8509942 L11.1020993,11.7510213 C9.92474445,12.7779755 8.38501303,13.4 6.7,13.4 C2.99969218,13.4 7.67386155e-13,10.4003078 7.67386155e-13,6.7 C7.67386155e-13,2.99969218 2.99969218,-4.26325641e-14 6.7,-4.26325641e-14 Z M6.7,1 C3.55197693,1 1,3.55197693 1,6.7 C1,9.84802307 3.55197693,12.4 6.7,12.4 C9.84802307,12.4 12.4,9.84802307 12.4,6.7 C12.4,3.55197693 9.84802307,1 6.7,1 Z"></path></g></g></g></svg>